<?xml version="1.0" standalone="no"?>
<!DOCTYPE svg PUBLIC "-//W3C//DTD SVG 20010904//EN"
 "http://www.w3.org/TR/2001/REC-SVG-20010904/DTD/svg10.dtd">
<svg version="1.0" xmlns="http://www.w3.org/2000/svg"
 width="312.000000pt" height="312.000000pt" viewBox="0 0 312.000000 312.000000"
 preserveAspectRatio="xMidYMid meet">
<metadata>
Created by potrace 1.11, written by Peter Selinger 2001-2013
</metadata>
<g transform="translate(0.000000,312.000000) scale(0.100000,-0.100000)"
fill="#000000" stroke="none">
<path d="M1050 2556 c-156 -74 -196 -97 -200 -115 -5 -20 -52 -41 -368 -158
-346 -129 -362 -136 -369 -164 -5 -16 -7 -108 -5 -205 3 -175 3 -177 20 -143
13 26 25 35 52 40 19 3 52 13 74 22 51 23 88 21 120 -4 38 -30 37 -88 -4 -122
-38 -32 -38 -42 -1 -23 34 18 56 66 47 102 -12 46 -59 84 -104 84 -22 0 -45
-6 -51 -14 -6 -8 -23 -16 -37 -19 l-25 -4 3 111 3 111 340 133 c339 133 340
133 377 119 l36 -15 7 48 7 48 41 -10 c23 -5 46 -13 52 -17 22 -17 55 -19 55
-3 0 16 97 15 500 -8 96 -6 294 -17 440 -25 507 -28 477 -24 486 -61 9 -34
-51 -1503 -62 -1513 -3 -4 -382 30 -525 46 -45 5 -46 5 -46 -25 0 -17 -8 -43
-19 -58 -19 -27 -22 -31 -43 -72 -11 -21 -10 -22 6 -14 10 6 26 19 35 29 17
18 24 18 155 6 119 -11 139 -11 153 2 20 18 39 20 22 3 -29 -29 -6 -51 62 -62
l39 -6 -7 31 c-4 22 -2 29 7 26 6 -2 11 -14 10 -26 -2 -13 3 -21 12 -21 20 0
31 30 15 40 -7 4 -10 12 -7 17 3 5 -17 8 -44 8 -27 0 -45 -1 -39 -3 5 -2 10
-12 10 -23 0 -10 5 -19 11 -19 5 0 8 -4 4 -9 -8 -14 -65 8 -65 24 0 8 5 17 10
20 6 4 8 11 5 16 -9 13 123 10 165 -4 19 -7 39 -22 45 -35 8 -18 18 -22 51
-22 25 0 47 6 54 15 7 8 41 131 75 273 l63 257 26 620 c15 341 29 652 32 690
9 115 78 101 -691 140 -369 19 -704 34 -745 34 -74 0 -78 -1 -270 -93z m1153
15 c48 -12 56 -19 35 -35 -9 -7 -18 -28 -20 -47 l-3 -34 -97 -3 -98 -3 0 35
c0 19 -4 38 -10 41 -6 4 -10 -9 -10 -31 0 -52 -17 -31 -22 26 -3 43 -2 45 27
51 45 10 155 10 198 0z"/>
<path d="M2170 2550 c0 -5 5 -10 11 -10 5 0 7 5 4 10 -3 6 -8 10 -11 10 -2 0
-4 -4 -4 -10z"/>
<path d="M1070 2324 c0 -6 6 -16 13 -23 10 -11 10 -13 0 -7 -7 4 -13 2 -13 -3
0 -6 7 -11 16 -11 10 0 14 -6 10 -15 -3 -8 -1 -15 5 -15 6 0 9 -8 8 -17 -1
-10 1 -26 4 -35 15 -38 15 -46 4 -57 -8 -8 -8 -11 0 -11 14 0 11 -23 -6 -44
-11 -13 -14 -119 -17 -520 l-4 -505 26 -20 c33 -26 109 -29 118 -5 10 26 7 44
-8 44 -8 0 -16 -10 -18 -22 -2 -17 -11 -24 -30 -26 -26 -3 -28 -1 -28 32 l0
36 74 0 c41 0 81 3 90 6 13 5 16 -1 16 -28 0 -19 -5 -39 -12 -46 -17 -17 4
-15 30 3 19 14 24 14 48 -1 28 -19 189 -30 179 -13 -9 13 6 79 17 79 6 0 8
-18 6 -40 -2 -29 0 -40 10 -40 8 0 25 -9 39 -20 33 -26 89 -36 108 -20 16 13
21 60 6 60 -5 0 -12 -11 -15 -25 -5 -20 -13 -25 -36 -25 -27 0 -30 3 -30 33
l0 32 95 0 c94 0 95 0 95 -24 0 -14 -8 -34 -17 -45 -17 -19 -17 -19 19 2 34
19 40 20 64 7 15 -7 56 -17 92 -21 73 -8 92 4 92 58 0 15 5 28 10 28 14 0 13
-63 -1 -77 -9 -9 -7 -10 10 -6 12 3 21 1 21 -6 0 -19 63 -51 100 -51 33 0 36
2 38 33 2 32 2 32 -11 7 -9 -18 -21 -25 -42 -25 -28 0 -30 3 -33 39 -3 36 -2
38 20 32 13 -3 44 -6 69 -6 45 0 46 -1 41 -27 -2 -16 -9 -34 -15 -40 -7 -10
-1 -13 26 -13 47 0 87 19 87 41 0 9 7 205 15 435 28 760 30 809 27 830 -3 20
-11 22 -135 28 -73 4 -150 9 -172 11 -22 2 -94 7 -160 10 -66 4 -257 15 -425
26 -494 32 -520 33 -520 23z m240 -139 c0 -19 -2 -35 -4 -35 -2 0 -6 16 -8 35
-2 19 0 35 4 35 4 0 8 -16 8 -35z m200 -9 c0 -19 -5 -38 -11 -41 -15 -10 -17
-4 -11 38 5 47 22 49 22 3z m-56 -3 c-9 -40 -21 -49 -16 -13 4 25 1 30 -17 30
-12 0 -24 -8 -28 -17 -11 -30 -23 -41 -42 -36 -13 3 -16 12 -13 34 4 28 6 29
63 29 l59 0 -6 -27z m186 -8 c0 -19 -2 -35 -4 -35 -2 0 -6 16 -8 35 -2 19 0
35 4 35 4 0 8 -16 8 -35z m196 -41 c-10 -25 -23 -15 -19 14 8 47 16 60 21 29
2 -16 1 -35 -2 -43z m-47 24 c-5 -18 -9 -34 -9 -35 0 -2 -4 -3 -8 -3 -5 0 -7
14 -4 30 6 43 -29 42 -45 -1 -9 -24 -17 -30 -35 -27 -13 2 -22 6 -20 11 1 4 2
18 2 32 0 24 2 25 64 25 l65 0 -10 -32z m423 -18 c2 -22 0 -40 -4 -40 -5 0 -8
18 -8 40 0 22 2 40 4 40 2 0 6 -18 8 -40z m118 10 c13 -8 12 -10 -3 -10 -10 0
-22 -11 -27 -25 -7 -18 -17 -25 -35 -25 -21 0 -25 5 -25 28 0 16 3 32 7 35 10
10 66 8 83 -3z m90 -25 c0 -22 -5 -35 -13 -35 -9 0 -12 11 -9 35 2 19 8 35 13
35 5 0 9 -16 9 -35z m-1093 -7 c-3 -8 -6 -5 -6 6 -1 11 2 17 5 13 3 -3 4 -12
1 -19z m83 -12 c-25 -14 -40 -13 -40 5 0 5 15 9 33 9 l32 -1 -25 -13z m415 -6
c3 -5 -1 -10 -10 -10 -9 0 -13 5 -10 10 3 6 8 10 10 10 2 0 7 -4 10 -10z
m-110 -10 c-28 -12 -55 -12 -55 0 0 6 17 10 38 9 30 0 33 -2 17 -9z m202 -22
c-3 -7 -5 -2 -5 12 0 14 2 19 5 13 2 -7 2 -19 0 -25z m124 12 c36 0 36 -1 30
-32 -5 -25 -13 -34 -31 -36 -14 -2 -20 1 -14 5 17 13 24 53 9 53 -7 0 -16 -11
-19 -24 -10 -40 -78 -43 -69 -3 10 46 13 49 36 43 12 -3 38 -6 58 -6z m79 -24
c0 -19 -4 -38 -10 -41 -6 -4 -10 10 -10 34 0 23 5 41 10 41 6 0 10 -15 10 -34z
m88 -7 c-3 -20 -5 -19 -9 9 -3 20 -2 29 4 23 5 -5 7 -19 5 -32z m-788 -15 c0
-21 -4 -33 -10 -29 -5 3 -10 22 -10 41 0 21 4 33 10 29 6 -3 10 -22 10 -41z
m-280 1 c0 -19 -2 -35 -4 -35 -2 0 -6 16 -8 35 -2 19 0 35 4 35 4 0 8 -16 8
-35z m1160 25 c11 -7 5 -10 -22 -10 -21 0 -38 5 -38 10 0 13 40 13 60 0z m115
1 c3 -5 1 -12 -5 -16 -5 -3 -10 1 -10 9 0 18 6 21 15 7z m-1067 -38 l-3 -38
-90 0 -90 0 3 25 c4 43 8 45 96 48 l87 4 -3 -39z m270 0 l-3 -38 -85 0 c-81 0
-85 1 -88 23 -7 47 2 52 93 52 l86 0 -3 -37z m52 -19 c0 -19 -4 -34 -10 -34
-5 0 -10 18 -10 41 0 24 4 38 10 34 6 -3 10 -22 10 -41z m210 -8 c0 -19 -5
-38 -12 -42 -13 -8 -162 -9 -176 0 -4 2 -6 21 -4 40 l4 36 94 0 94 0 0 -34z
m342 -26 c2 -25 0 -39 -7 -37 -13 4 -19 77 -7 77 6 0 12 -18 14 -40z m-116
-36 c-10 -25 -23 -15 -19 14 8 47 16 60 21 29 2 -16 1 -35 -2 -43z m81 14 c-2
-13 -4 -5 -4 17 -1 22 1 32 4 23 2 -10 2 -28 0 -40z m-131 26 c-3 -9 -6 -24
-6 -35 0 -12 -7 -19 -17 -18 -11 0 -13 3 -5 6 6 2 12 16 12 29 0 34 -37 33
-46 -1 -6 -24 -35 -41 -52 -31 -5 3 -7 19 -4 36 4 30 5 30 64 30 51 0 59 -2
54 -16z m329 -21 c0 -43 11 -42 19 2 9 47 28 45 24 -2 l-3 -38 -90 0 -90 0 -3
38 -3 38 73 -3 73 -3 0 -32z m-1257 -24 c-3 -33 -4 -33 -8 8 -3 23 -2 39 3 34
5 -5 7 -24 5 -42z m281 3 c-1 -33 -2 -34 -9 -12 -12 36 -12 62 0 55 6 -3 10
-23 9 -43z m-69 -3 c0 -40 -34 -53 -123 -44 l-68 7 3 32 3 31 85 5 c47 3 88 4
93 2 4 -2 7 -17 7 -33z m280 3 c0 -42 -17 -52 -84 -52 -88 0 -106 7 -106 39 0
15 3 31 7 34 3 4 46 7 95 7 l88 0 0 -28z m60 -28 c0 -19 -4 -34 -10 -34 -5 0
-10 18 -10 41 0 24 4 38 10 34 6 -3 10 -22 10 -41z m210 -8 c0 -41 -10 -46
-100 -46 -91 0 -97 3 -92 45 l4 35 94 0 94 0 0 -34z m330 -37 c0 -24 -4 -38
-10 -34 -5 3 -10 24 -10 46 0 24 4 38 10 34 6 -3 10 -24 10 -46z m161 26 c3
-2 3 -20 1 -39 -5 -40 -22 -47 -97 -37 -50 6 -50 6 -50 43 l0 38 71 0 c39 0
73 -2 75 -5z m47 -32 c-2 -24 -9 -39 -18 -41 -12 -2 -15 6 -12 38 3 27 9 40
19 40 10 0 13 -10 11 -37z m-1288 -8 c0 -19 -2 -35 -4 -35 -2 0 -6 16 -8 35
-2 19 0 35 4 35 4 0 8 -16 8 -35z m260 0 c0 -19 -2 -35 -4 -35 -2 0 -6 16 -8
35 -2 19 0 35 4 35 4 0 8 -16 8 -35z m-50 -9 c0 -19 -5 -38 -11 -42 -18 -11
-160 -7 -172 5 -5 5 -7 21 -3 35 6 23 11 25 69 29 34 2 74 4 90 5 25 2 27 -1
27 -32z m258 -12 c-2 -23 -9 -30 -38 -36 -19 -4 -61 -5 -93 -1 -45 4 -57 9
-53 20 4 8 6 23 6 33 0 17 9 20 83 22 45 2 86 0 90 -3 5 -4 7 -19 5 -35z m52
-16 c0 -49 -5 -47 -13 5 -3 20 -2 37 4 37 5 0 9 -19 9 -42z m290 1 c0 -24 -4
-38 -10 -34 -5 3 -10 22 -10 41 0 19 5 34 10 34 6 0 10 -18 10 -41z m-80 -18
c0 -37 -1 -39 -41 -44 -22 -3 -65 -3 -95 0 -48 5 -54 8 -54 29 0 51 6 54 101
54 l89 0 0 -39z m285 7 c-11 -48 -10 -48 -85 -48 -90 0 -100 5 -100 46 l0 34
96 0 96 0 -7 -32z m144 -9 c47 -4 91 -5 98 -2 9 4 13 -6 13 -35 0 -39 0 -39
-44 -44 -24 -3 -67 -3 -95 0 l-51 5 0 38 c0 22 -5 39 -11 39 -7 0 -10 -12 -7
-30 3 -19 1 -29 -6 -27 -6 2 -12 21 -14 42 -3 33 -1 37 15 30 10 -5 56 -12
102 -16z m-1172 -61 c-2 -13 -4 -5 -4 17 -1 22 1 32 4 23 2 -10 2 -28 0 -40z
m275 17 c2 -19 0 -35 -4 -35 -4 0 -8 16 -8 35 0 19 2 35 4 35 2 0 6 -16 8 -35z
m-64 -12 l-3 -38 -70 -2 c-103 -3 -112 0 -107 39 l4 33 89 3 90 2 -3 -37z
m270 -1 c-3 -34 -6 -37 -45 -45 -43 -8 -136 2 -134 16 0 4 1 18 1 32 0 23 3
24 68 27 37 2 77 4 90 4 21 2 23 -2 20 -34z m62 -28 c0 -21 -4 -33 -10 -29 -5
3 -10 22 -10 41 0 21 4 33 10 29 6 -3 10 -22 10 -41z m282 6 c2 -22 1 -40 -3
-40 -4 0 -9 18 -11 40 -2 22 -1 40 3 40 4 0 9 -18 11 -40z m-72 -14 c0 -41
-10 -46 -100 -46 -91 0 -97 3 -92 45 l4 35 94 0 94 0 0 -34z m280 0 c0 -40
-11 -46 -88 -46 -84 0 -102 7 -102 39 0 15 3 31 7 34 3 4 46 7 95 7 l88 0 0
-34z m48 -29 c2 -20 -1 -37 -6 -37 -6 0 -12 18 -14 40 -2 25 0 39 7 37 5 -2
11 -20 13 -40z m-1081 -29 c-2 -13 -4 -5 -4 17 -1 22 1 32 4 23 2 -10 2 -28 0
-40z m283 6 c0 -21 -4 -33 -10 -29 -5 3 -10 22 -10 41 0 21 4 33 10 29 6 -3
10 -22 10 -41z m938 40 c28 -6 29 -8 21 -37 -13 -46 -20 -49 -85 -40 l-59 8 0
38 -1 37 47 0 c26 0 60 -3 77 -6z m70 -31 c-2 -24 -9 -39 -18 -41 -12 -2 -15
6 -12 38 3 27 9 40 19 40 10 0 13 -10 11 -37z m-1080 -10 c-3 -36 -5 -38 -48
-45 -25 -5 -52 -5 -60 -2 -8 4 -30 6 -47 5 -34 -3 -38 4 -27 46 6 20 14 23 83
26 42 1 82 4 89 5 9 1 12 -9 10 -35z m272 -7 c0 -38 -14 -46 -90 -46 -76 0
-90 8 -90 46 l0 34 90 0 90 0 0 -34z m60 -22 c0 -21 -4 -33 -10 -29 -5 3 -10
22 -10 41 0 21 4 33 10 29 6 -3 10 -22 10 -41z m282 6 c2 -22 1 -40 -3 -40 -4
0 -9 18 -11 40 -2 22 -1 40 3 40 4 0 9 -18 11 -40z m-74 -20 c-3 -30 -7 -35
-38 -42 -19 -4 -61 -5 -92 -1 l-58 6 0 36 0 36 95 0 96 0 -3 -35z m280 0 l-3
-35 -90 0 -90 0 -1 36 -1 36 94 -1 94 -1 -3 -35z m52 -32 c0 -49 -17 -41 -22
11 -2 28 0 37 9 34 8 -3 13 -22 13 -45z m-1093 -20 c-2 -13 -4 -5 -4 17 -1 22
1 32 4 23 2 -10 2 -28 0 -40z m271 1 c-3 -33 -4 -33 -8 8 -3 23 -2 39 3 34 5
-5 7 -24 5 -42z m948 41 l84 0 0 -28 c0 -31 -16 -52 -39 -52 -12 0 -12 3 -3
12 15 15 16 58 2 58 -5 0 -11 -7 -11 -15 -1 -8 -3 -19 -4 -25 -1 -5 -3 -14 -4
-20 -1 -11 -82 -13 -118 -4 -19 5 -22 12 -20 45 1 28 6 38 15 34 8 -3 52 -5
98 -5z m-1016 -39 c0 -38 -1 -39 -42 -43 -56 -6 -67 -1 -61 25 5 22 4 22 -14
-2 -27 -33 -57 -25 -61 16 l-3 32 83 4 c46 1 86 4 91 5 4 1 7 -16 7 -37z m275
-11 c0 -31 -3 -35 -35 -42 -19 -4 -61 -5 -93 -1 -58 6 -58 6 -55 37 l3 31 80
6 c103 7 100 8 100 -31z m75 -26 c0 -21 -4 -33 -10 -29 -5 3 -10 22 -10 41 0
21 4 33 10 29 6 -3 10 -22 10 -41z m272 6 c2 -22 1 -40 -3 -40 -4 0 -9 18 -11
40 -2 22 -1 40 3 40 4 0 9 -18 11 -40z m-64 -19 c-3 -33 -6 -36 -45 -43 -22
-3 -63 -4 -90 0 -46 7 -48 8 -51 43 l-3 35 96 1 96 0 -3 -36z m270 2 l-3 -38
-70 -3 c-96 -4 -115 2 -115 37 0 15 3 31 7 34 3 4 46 7 95 7 l89 0 -3 -37z
m50 -32 c4 -55 -14 -46 -20 9 -2 25 0 39 7 37 5 -2 11 -23 13 -46z m-1058 -8
c0 -43 -7 -41 -15 5 -3 19 -1 32 5 32 5 0 10 -16 10 -37z m257 -15 c-2 -13 -4
-5 -4 17 -1 22 1 32 4 23 2 -10 2 -28 0 -40z m936 42 l77 0 0 -28 c0 -42 -17
-52 -89 -52 -102 0 -112 5 -109 52 3 34 6 38 23 34 11 -3 55 -6 98 -6z m-995
-37 l-3 -38 -85 0 c-81 0 -85 1 -88 23 -6 43 2 47 92 50 l87 2 -3 -37z m255
-33 c-9 -9 -67 -14 -130 -12 -42 2 -43 3 -43 37 l0 34 88 3 87 3 3 -29 c2 -16
0 -32 -5 -36z m67 4 c0 -21 -4 -33 -10 -29 -5 3 -10 22 -10 41 0 21 4 33 10
29 6 -3 10 -22 10 -41z m278 -5 c-3 -33 -4 -33 -8 8 -3 23 -2 39 3 34 5 -5 7
-24 5 -42z m-68 -10 c0 -40 -35 -53 -119 -44 -35 3 -67 8 -71 10 -4 2 -5 18
-2 34 l4 30 87 3 c47 2 89 2 94 0 4 -2 7 -17 7 -33z m184 31 l53 0 -5 -30 c-3
-18 0 -30 7 -30 6 0 11 13 11 29 0 17 5 33 10 36 16 10 24 -24 12 -51 -11 -22
-17 -24 -81 -24 -87 0 -101 5 -101 39 0 32 9 44 28 36 7 -3 37 -5 66 -5z m138
-60 c2 -22 0 -40 -4 -40 -5 0 -8 13 -8 29 0 16 -3 37 -7 47 -4 11 -3 15 4 11
6 -4 13 -25 15 -47z m-1065 -22 c-2 -13 -4 -5 -4 17 -1 22 1 32 4 23 2 -10 2
-28 0 -40z m278 8 c1 -20 -2 -33 -7 -30 -4 3 -8 21 -8 41 0 45 12 36 15 -11z
m-71 -7 c1 -35 -21 -49 -79 -49 -33 0 -33 1 -25 30 10 36 -2 40 -18 5 -8 -17
-20 -25 -37 -25 -24 0 -26 3 -23 33 l3 32 85 5 c47 3 87 4 89 3 2 -2 5 -17 5
-34z m984 31 c31 0 33 -2 30 -35 l-2 -35 -52 0 c-74 0 -84 6 -84 47 0 36 0 36
38 29 20 -3 52 -6 70 -6z m80 -27 c-2 -27 -8 -39 -20 -41 -11 -2 -16 2 -14 10
2 7 7 25 10 41 9 41 28 33 24 -10z m-788 -2 c0 -44 -20 -54 -104 -49 -41 2
-77 5 -79 8 -3 3 -2 20 0 38 l5 32 89 0 89 0 0 -29z m53 -34 c3 -22 2 -35 -4
-32 -5 4 -9 22 -9 42 0 45 5 40 13 -10z m287 7 c0 -21 -4 -33 -10 -29 -5 3
-10 19 -10 36 0 16 5 29 10 29 6 0 10 -16 10 -36z m-80 -19 c0 -29 -4 -36 -26
-41 -24 -6 -152 1 -160 9 -2 2 -1 18 2 35 l7 32 88 0 89 0 0 -35z m280 0 c0
-26 -4 -35 -16 -35 -12 0 -15 7 -12 30 3 17 1 30 -3 30 -9 0 -19 -27 -19 -52
0 -19 -4 -20 -62 -14 -34 4 -65 9 -68 11 -4 2 -5 18 -2 35 l4 30 89 0 89 0 0
-35z m50 -36 c0 -24 -4 -38 -10 -34 -5 3 -10 24 -10 46 0 24 4 38 10 34 6 -3
10 -24 10 -46z m-813 -21 c-2 -13 -4 -3 -4 22 0 25 2 35 4 23 2 -13 2 -33 0
-45z m-250 5 c-3 -10 -5 -2 -5 17 0 19 2 27 5 18 2 -10 2 -26 0 -35z m1176 37
c47 0 58 -3 49 -12 -7 -7 -12 -25 -12 -41 l0 -30 -61 7 c-33 3 -64 8 -68 10
-4 3 -5 21 -3 41 3 27 8 35 19 31 8 -3 42 -6 76 -6z m-963 -29 c0 -36 -22 -51
-74 -51 -40 0 -40 -1 -26 34 7 21 6 26 -5 26 -8 0 -15 -9 -15 -19 0 -20 -18
-31 -51 -31 -20 0 -23 10 -13 45 5 18 15 20 95 23 l89 3 0 -30z m238 -11 c-2
-22 -9 -36 -19 -38 -12 -2 -15 4 -12 30 l3 33 -11 -33 c-9 -31 -12 -33 -57
-31 -72 2 -82 7 -82 38 0 15 2 30 4 32 2 2 43 4 91 4 l86 0 -3 -35z m820 8
c-2 -20 -9 -34 -19 -36 -12 -2 -14 5 -11 33 6 47 35 50 30 3z m-759 -41 c-1
-40 -2 -40 -9 -12 -11 44 -11 67 0 60 6 -3 9 -25 9 -48z m281 11 c0 -23 -3
-38 -7 -34 -11 10 -13 76 -3 76 6 0 10 -19 10 -42z m157 8 c2 -2 0 -17 -3 -34
-6 -31 -9 -32 -54 -32 -69 0 -80 6 -80 47 l0 35 67 -7 c37 -4 69 -8 70 -9z
m41 -23 c-2 -26 -8 -39 -20 -41 -14 -3 -15 2 -6 37 13 51 30 53 26 4z m-270
-5 c-4 -42 -33 -53 -121 -44 l-67 8 0 34 0 34 96 0 95 0 -3 -32z m322 -29 c0
-24 -4 -38 -10 -34 -5 3 -10 24 -10 46 0 24 4 38 10 34 6 -3 10 -24 10 -46z
m-1053 -21 c-2 -13 -4 -5 -4 17 -1 22 1 32 4 23 2 -10 2 -28 0 -40z m273 17
c0 -19 -2 -35 -4 -35 -2 0 -6 16 -8 35 -2 19 0 35 4 35 4 0 8 -16 8 -35z m901
15 c34 0 35 -1 31 -32 -6 -41 -16 -47 -61 -41 -76 10 -76 9 -76 51 l0 39 35
-8 c19 -5 51 -9 71 -9z m-973 -27 c-3 -38 -3 -38 -50 -41 l-48 -3 7 32 c5 25
3 31 -8 27 -8 -3 -16 -13 -17 -24 -6 -28 -17 -37 -41 -29 -15 4 -21 15 -21 35
l0 29 83 4 c45 1 86 4 90 5 5 1 7 -15 5 -35z m1060 -9 c-2 -17 -10 -30 -19
-32 -13 -2 -15 3 -12 25 8 48 13 57 24 46 6 -6 9 -23 7 -39z m-790 4 c-2 -20
-9 -34 -19 -36 -12 -2 -15 4 -11 29 6 41 -13 31 -21 -11 -5 -24 -12 -30 -32
-30 -22 0 -24 3 -15 19 12 24 13 41 1 41 -5 0 -11 -10 -13 -22 -2 -18 -11 -24
-35 -26 -32 -3 -33 -2 -33 32 l0 36 91 0 90 0 -3 -32z m62 -23 c0 -19 -2 -35
-4 -35 -2 0 -6 16 -8 35 -2 19 0 35 4 35 4 0 8 -16 8 -35z m280 0 c0 -19 -2
-35 -4 -35 -2 0 -6 16 -8 35 -2 19 0 35 4 35 4 0 8 -16 8 -35z m-70 -15 c0
-43 -27 -54 -116 -45 l-74 7 0 33 0 32 95 2 95 1 0 -30z m232 18 c-5 -7 -12
-24 -14 -38 -3 -24 -6 -25 -58 -22 -74 3 -78 5 -72 41 l4 31 75 0 c59 0 73 -3
65 -12z m38 -23 c0 -26 -4 -35 -16 -35 -12 0 -15 6 -10 23 3 12 6 28 6 35 0 6
5 12 10 12 6 0 10 -16 10 -35z m50 -38 c0 -31 -3 -38 -10 -27 -13 20 -13 83 0
75 6 -3 10 -25 10 -48z m-1063 -9 c-2 -13 -4 -5 -4 17 -1 22 1 32 4 23 2 -10
2 -28 0 -40z m270 0 c-2 -13 -4 -5 -4 17 -1 22 1 32 4 23 2 -10 2 -28 0 -40z
m157 2 c-10 -45 -13 -50 -33 -50 -17 0 -18 4 -11 30 7 23 5 30 -5 30 -7 0 -15
-10 -17 -22 -2 -18 -11 -24 -35 -26 -30 -3 -33 -1 -33 26 0 16 2 31 4 33 3 2
34 4 70 4 64 0 65 0 60 -25z m798 18 c-5 -7 -12 -24 -14 -38 -2 -21 -9 -25
-44 -28 -22 -2 -52 1 -65 7 -22 8 -25 14 -21 40 l4 31 75 0 c59 0 73 -3 65
-12z m48 -17 c0 -16 -7 -34 -15 -41 -20 -17 -23 -12 -17 33 5 45 32 52 32 8z
m-740 -26 c0 -19 -2 -35 -4 -35 -2 0 -6 16 -8 35 -2 19 0 35 4 35 4 0 8 -16 8
-35z m277 -17 c-2 -13 -4 -5 -4 17 -1 22 1 32 4 23 2 -10 2 -28 0 -40z m138
22 c20 0 22 -4 16 -32 -5 -24 -13 -34 -29 -36 -16 -2 -22 2 -22 14 0 14 -3 15
-12 6 -7 -7 -25 -12 -40 -12 -26 0 -28 3 -28 36 l0 37 46 -7 c26 -3 57 -6 69
-6z m115 -60 c0 -22 -2 -40 -4 -40 -2 0 -6 18 -8 40 -2 22 0 40 4 40 5 0 8
-18 8 -40z m208 -17 c-2 -25 -8 -39 -19 -41 -13 -2 -15 3 -12 25 7 43 11 53
23 53 7 0 10 -15 8 -37z"/>
<path d="M1582 2005 c0 -16 2 -22 5 -12 2 9 2 23 0 30 -3 6 -5 -1 -5 -18z"/>
<path d="M2114 1796 c-3 -8 -4 -23 -2 -33 3 -11 6 -6 9 15 6 34 2 42 -7 18z"/>
<path d="M2366 1742 c-4 -13 -5 -26 -2 -29 10 -11 18 4 14 29 l-4 23 -8 -23z"/>
<path d="M1572 1720 c0 -14 2 -19 5 -12 2 6 2 18 0 25 -3 6 -5 1 -5 -13z"/>
<path d="M2122 1685 c0 -16 2 -22 5 -12 2 9 2 23 0 30 -3 6 -5 -1 -5 -18z"/>
<path d="M1572 1625 c0 -16 2 -22 5 -12 2 9 2 23 0 30 -3 6 -5 -1 -5 -18z"/>
<path d="M2118 1585 c-3 -14 -1 -25 3 -25 5 0 9 11 9 25 0 14 -2 25 -4 25 -2
0 -6 -11 -8 -25z"/>
<path d="M2107 1496 c-4 -15 -6 -31 -2 -34 10 -10 16 6 13 35 l-3 28 -8 -29z"/>
<path d="M2356 1444 c-8 -29 -3 -39 13 -29 13 8 15 55 2 55 -5 0 -12 -12 -15
-26z"/>
<path d="M1225 1420 c-3 -5 -1 -10 4 -10 6 0 11 5 11 10 0 6 -2 10 -4 10 -3 0
-8 -4 -11 -10z"/>
<path d="M1562 1435 c0 -16 2 -22 5 -12 2 9 2 23 0 30 -3 6 -5 -1 -5 -18z"/>
<path d="M1571 1370 c-2 -3 -5 -18 -7 -35 -4 -23 -2 -27 6 -19 7 7 10 22 7 35
-2 13 -5 22 -6 19z"/>
<path d="M1298 1245 c-3 -14 -1 -25 3 -25 5 0 9 11 9 25 0 14 -2 25 -4 25 -2
0 -6 -11 -8 -25z"/>
<path d="M1280 1155 c0 -14 5 -25 10 -25 6 0 10 11 10 25 0 14 -4 25 -10 25
-5 0 -10 -11 -10 -25z"/>
<path d="M1818 1105 c-3 -14 -1 -25 3 -25 5 0 9 11 9 25 0 14 -2 25 -4 25 -2
0 -6 -11 -8 -25z"/>
<path d="M328 1755 c-20 -8 -39 -11 -42 -8 -3 4 -6 -14 -6 -38 0 -25 -3 -49
-7 -55 -5 -5 0 -1 9 9 11 12 24 17 35 12 14 -5 15 -3 6 6 -9 9 -3 19 24 44 41
37 34 48 -19 30z"/>
<path d="M117 1538 c3 -195 11 -275 23 -243 13 33 37 48 72 43 21 -4 48 3 79
18 26 13 54 24 62 24 22 0 57 -48 57 -79 0 -32 -25 -71 -46 -71 -8 0 -14 -4
-14 -10 0 -17 17 -11 47 14 22 19 28 32 28 66 0 36 -6 47 -38 76 -44 40 -68
42 -122 9 -22 -13 -43 -25 -47 -25 -4 0 -6 62 -5 139 l2 139 -24 0 c-23 0 -42
16 -66 57 -7 11 -9 -38 -8 -157z"/>
<path d="M327 1292 c-27 -12 -37 -22 -35 -36 2 -11 9 -21 16 -24 7 -2 10 2 6
12 -5 12 -2 15 10 10 9 -3 16 -1 16 5 0 6 6 10 13 9 6 -2 11 3 10 10 -2 6 2
12 7 12 6 0 10 5 10 10 0 13 -7 12 -53 -8z"/>
<path d="M131 1110 c1 -120 13 -330 17 -289 3 29 39 52 72 46 23 -5 42 1 80
23 61 36 92 29 109 -23 13 -39 7 -65 -23 -89 -11 -9 -18 -19 -15 -22 10 -11
57 33 63 59 9 36 -18 91 -56 115 -43 26 -54 25 -100 -6 -21 -15 -41 -24 -44
-21 -7 7 -11 227 -4 247 3 9 -1 15 -10 16 -34 1 -59 17 -74 47 -15 31 -16 27
-15 -103z"/>
<path d="M1274 1055 c-9 -27 -8 -35 1 -35 14 0 25 22 25 51 0 31 -14 22 -26
-16z"/>
<path d="M1814 1024 c3 -8 1 -24 -4 -35 -6 -11 -7 -19 -1 -19 5 0 12 7 15 16
10 25 7 54 -5 54 -6 0 -8 -7 -5 -16z"/>
<path d="M910 884 c-30 -21 -56 -38 -58 -39 -2 -2 0 -14 4 -29 9 -36 30 -40
359 -70 401 -37 406 -38 401 -44 -3 -3 -16 -6 -28 -6 -13 -1 -40 -6 -61 -10
-32 -7 -36 -10 -25 -24 12 -14 10 -14 -12 -2 -17 9 -25 10 -28 1 -2 -6 -8 -9
-13 -5 -18 11 -9 24 24 33 l32 10 -41 -1 c-31 -1 -40 -6 -41 -20 -1 -10 9 -26
23 -35 22 -14 32 -14 80 -3 38 9 53 17 50 27 -6 15 10 18 19 3 10 -16 28 -11
21 6 -3 8 -2 12 4 9 19 -12 10 -33 -17 -43 -22 -8 -24 -11 -8 -11 11 -1 31 6
43 15 23 16 23 17 5 36 -13 15 -14 20 -4 16 26 -8 36 -35 24 -60 -15 -31 -22
-78 -12 -78 12 0 29 35 29 61 0 16 3 19 13 11 6 -5 23 -13 35 -17 27 -8 27 -8
-44 68 -40 42 -51 79 -35 114 7 14 10 27 9 28 -2 1 -131 14 -288 29 -334 33
-383 40 -388 55 -6 17 -12 14 -72 -25z"/>
<path d="M1724 843 c-37 -18 -68 -66 -59 -92 11 -34 52 -63 97 -66 l43 -4 -38
8 c-46 10 -87 47 -87 78 0 78 140 109 185 40 20 -31 5 -76 -33 -100 -15 -9
-21 -17 -14 -17 8 0 27 13 43 29 81 81 -27 179 -137 124z"/>
<path d="M323 830 c-18 -9 -27 -21 -25 -32 3 -17 5 -17 30 -1 15 10 38 25 51
35 l24 18 -26 -2 c-14 -1 -38 -9 -54 -18z"/>
<path d="M1704 795 c-11 -27 4 -43 47 -50 37 -6 45 -4 61 16 l20 24 -6 -27
c-7 -33 8 -37 24 -7 15 26 0 44 -42 53 -24 5 -37 1 -55 -16 -25 -23 -44 -18
-23 7 10 12 10 15 -4 15 -9 0 -19 -7 -22 -15z m90 -14 c3 -5 -1 -14 -8 -20
-16 -13 -32 2 -21 19 8 12 22 13 29 1z"/>
<path d="M141 690 c0 -52 4 -117 7 -145 7 -48 9 -50 40 -53 25 -3 52 9 117 49
47 28 85 54 85 57 0 2 -29 1 -65 -3 -80 -8 -95 1 -90 54 3 35 0 39 -28 52 -19
8 -39 29 -49 49 l-18 35 1 -95z"/>
<path d="M2406 655 c19 -15 19 -15 0 -30 -20 -15 -10 -20 18 -9 22 8 20 31 -3
44 -29 15 -38 12 -15 -5z"/>
<path d="M1403 615 c0 -22 2 -30 4 -17 2 12 2 30 0 40 -3 9 -5 -1 -4 -23z"/>
<path d="M1433 595 c0 -22 2 -30 4 -17 2 12 2 30 0 40 -3 9 -5 -1 -4 -23z"/>
<path d="M2180 596 c0 -19 3 -37 8 -40 4 -2 6 13 4 35 -5 48 -12 51 -12 5z"/>
<path d="M2210 586 c0 -14 5 -28 10 -31 6 -3 10 5 10 19 0 14 -4 28 -10 31 -6
3 -10 -5 -10 -19z"/>
<path d="M2446 602 c-4 -7 -6 -16 -3 -19 3 -3 1 -17 -4 -32 -9 -24 -9 -25 6
-10 10 10 15 28 13 45 -2 20 -6 25 -12 16z"/>
</g>
</svg>
